<?xml version="1.0" encoding="UTF-8"?>
<svg xmlns="http://www.w3.org/2000/svg" xmlns:xlink="http://www.w3.org/1999/xlink" width="24pt" height="24pt" viewBox="0 0 24 24" version="1.1">
<g id="surface1">
<path style=" stroke:none;fill-rule:nonzero;fill:rgb(0%,0%,0%);fill-opacity:1;" d="M 21.890625 5.40625 C 20.726562 5.40625 19.78125 6.351562 19.78125 7.515625 C 19.78125 7.808594 19.839844 8.085938 19.945312 8.339844 L 15.527344 12.761719 C 15.273438 12.652344 14.996094 12.59375 14.703125 12.59375 C 14.410156 12.59375 14.132812 12.652344 13.878906 12.761719 L 11.238281 10.121094 C 11.347656 9.867188 11.40625 9.589844 11.40625 9.296875 C 11.40625 8.132812 10.460938 7.1875 9.296875 7.1875 C 8.132812 7.1875 7.1875 8.132812 7.1875 9.296875 C 7.1875 9.589844 7.246094 9.867188 7.355469 10.121094 L 2.933594 14.539062 C 2.679688 14.433594 2.402344 14.375 2.109375 14.375 C 0.945312 14.375 0 15.316406 0 16.484375 C 0 17.648438 0.945312 18.59375 2.109375 18.59375 C 3.273438 18.59375 4.21875 17.648438 4.21875 16.484375 C 4.21875 16.191406 4.160156 15.914062 4.050781 15.660156 L 8.472656 11.238281 C 8.726562 11.347656 9.003906 11.40625 9.296875 11.40625 C 9.589844 11.40625 9.867188 11.347656 10.121094 11.238281 L 12.761719 13.878906 C 12.652344 14.132812 12.59375 14.410156 12.59375 14.703125 C 12.59375 15.867188 13.539062 16.8125 14.703125 16.8125 C 15.867188 16.8125 16.8125 15.867188 16.8125 14.703125 C 16.8125 14.410156 16.753906 14.132812 16.644531 13.878906 L 21.066406 9.460938 C 21.320312 9.566406 21.597656 9.625 21.890625 9.625 C 23.054688 9.625 24 8.683594 24 7.515625 C 24 6.351562 23.054688 5.40625 21.890625 5.40625 Z M 21.890625 5.40625 "/>
</g>
</svg>
