<?xml version="1.0" encoding="UTF-8"?>
<svg xmlns="http://www.w3.org/2000/svg" xmlns:xlink="http://www.w3.org/1999/xlink" width="24pt" height="24pt" viewBox="0 0 24 24" version="1.1">
<g id="surface1">
<path style=" stroke:none;fill-rule:nonzero;fill:rgb(0%,0%,0%);fill-opacity:1;" d="M 23 3.34375 L 20.179688 3.34375 L 20.179688 1.488281 C 20.179688 0.9375 19.734375 0.492188 19.183594 0.492188 C 18.628906 0.492188 18.183594 0.9375 18.183594 1.488281 L 18.183594 3.34375 L 5.816406 3.34375 L 5.816406 1.488281 C 5.816406 0.9375 5.371094 0.492188 4.816406 0.492188 C 4.265625 0.492188 3.820312 0.9375 3.820312 1.488281 L 3.820312 3.34375 L 1 3.34375 C 0.445312 3.34375 0 3.789062 0 4.339844 L 0 22.511719 C 0 23.0625 0.445312 23.507812 1 23.507812 L 23 23.507812 C 23.554688 23.507812 24 23.0625 24 22.511719 L 24 4.339844 C 24 3.789062 23.554688 3.34375 23 3.34375 Z M 22.003906 5.339844 L 22.003906 7.558594 L 1.996094 7.558594 L 1.996094 5.339844 Z M 1.996094 21.511719 L 1.996094 9.554688 L 22.003906 9.554688 L 22.003906 21.511719 Z M 1.996094 21.511719 "/>
<path style=" stroke:none;fill-rule:nonzero;fill:rgb(0%,0%,0%);fill-opacity:1;" d="M 15.5625 11.394531 L 9.960938 16.992188 L 8.4375 15.46875 C 8.050781 15.078125 7.417969 15.078125 7.027344 15.46875 C 6.636719 15.859375 6.636719 16.488281 7.027344 16.878906 L 9.257812 19.109375 C 9.453125 19.304688 9.707031 19.402344 9.960938 19.402344 C 10.21875 19.402344 10.472656 19.304688 10.667969 19.109375 L 16.972656 12.804688 C 17.363281 12.414062 17.363281 11.785156 16.972656 11.394531 C 16.582031 11.003906 15.949219 11.003906 15.5625 11.394531 Z M 15.5625 11.394531 "/>
</g>
</svg>
