<?xml version="1.0" encoding="UTF-8"?>
<svg xmlns="http://www.w3.org/2000/svg" xmlns:xlink="http://www.w3.org/1999/xlink" width="24pt" height="24pt" viewBox="0 0 24 24" version="1.1">
<g id="surface1">
<path style=" stroke:none;fill-rule:nonzero;fill:rgb(0%,0%,0%);fill-opacity:1;" d="M 14.707031 16.421875 L 15.792969 15.800781 L 16.878906 16.421875 L 16.671875 15.109375 L 17.550781 14.179688 L 16.335938 13.988281 L 15.792969 12.796875 L 15.25 13.988281 L 14.035156 14.179688 L 14.914062 15.109375 Z M 14.707031 16.421875 "/>
<path style=" stroke:none;fill-rule:nonzero;fill:rgb(0%,0%,0%);fill-opacity:1;" d="M 19.46875 10.304688 C 19.675781 10.304688 19.878906 10.21875 20.027344 10.070312 C 20.175781 9.925781 20.261719 9.71875 20.261719 9.511719 C 20.261719 9.300781 20.175781 9.09375 20.027344 8.949219 C 19.882812 8.800781 19.675781 8.714844 19.46875 8.714844 C 19.257812 8.714844 19.050781 8.800781 18.902344 8.949219 C 18.753906 9.09375 18.671875 9.300781 18.671875 9.511719 C 18.671875 9.71875 18.753906 9.925781 18.902344 10.070312 C 19.050781 10.21875 19.257812 10.304688 19.46875 10.304688 Z M 19.46875 10.304688 "/>
<path style=" stroke:none;fill-rule:nonzero;fill:rgb(0%,0%,0%);fill-opacity:1;" d="M 15.734375 10.304688 C 15.941406 10.304688 16.148438 10.21875 16.296875 10.070312 C 16.445312 9.925781 16.527344 9.71875 16.527344 9.511719 C 16.527344 9.300781 16.445312 9.09375 16.296875 8.949219 C 16.148438 8.800781 15.941406 8.714844 15.734375 8.714844 C 15.523438 8.714844 15.320312 8.800781 15.171875 8.949219 C 15.023438 9.09375 14.9375 9.300781 14.9375 9.511719 C 14.9375 9.71875 15.023438 9.925781 15.171875 10.070312 C 15.320312 10.21875 15.523438 10.304688 15.734375 10.304688 Z M 15.734375 10.304688 "/>
<path style=" stroke:none;fill-rule:nonzero;fill:rgb(0%,0%,0%);fill-opacity:1;" d="M 12 10.304688 C 12.207031 10.304688 12.414062 10.21875 12.5625 10.070312 C 12.710938 9.925781 12.796875 9.71875 12.796875 9.511719 C 12.796875 9.300781 12.710938 9.09375 12.5625 8.949219 C 12.414062 8.800781 12.210938 8.714844 12 8.714844 C 11.789062 8.714844 11.585938 8.800781 11.4375 8.949219 C 11.289062 9.09375 11.203125 9.300781 11.203125 9.511719 C 11.203125 9.71875 11.289062 9.925781 11.4375 10.070312 C 11.585938 10.21875 11.789062 10.304688 12 10.304688 Z M 12 10.304688 "/>
<path style=" stroke:none;fill-rule:nonzero;fill:rgb(0%,0%,0%);fill-opacity:1;" d="M 8.265625 10.304688 C 8.476562 10.304688 8.679688 10.21875 8.828125 10.070312 C 8.976562 9.925781 9.0625 9.71875 9.0625 9.511719 C 9.0625 9.300781 8.976562 9.09375 8.828125 8.949219 C 8.679688 8.800781 8.476562 8.714844 8.265625 8.714844 C 8.058594 8.714844 7.851562 8.800781 7.703125 8.949219 C 7.554688 9.09375 7.472656 9.300781 7.472656 9.511719 C 7.472656 9.71875 7.554688 9.925781 7.703125 10.070312 C 7.851562 10.21875 8.058594 10.304688 8.265625 10.304688 Z M 8.265625 10.304688 "/>
<path style=" stroke:none;fill-rule:nonzero;fill:rgb(0%,0%,0%);fill-opacity:1;" d="M 4.535156 10.304688 C 4.742188 10.304688 4.949219 10.21875 5.097656 10.070312 C 5.242188 9.925781 5.328125 9.71875 5.328125 9.511719 C 5.328125 9.300781 5.242188 9.09375 5.097656 8.949219 C 4.949219 8.800781 4.742188 8.714844 4.535156 8.714844 C 4.324219 8.714844 4.121094 8.800781 3.972656 8.949219 C 3.824219 9.09375 3.738281 9.300781 3.738281 9.511719 C 3.738281 9.71875 3.824219 9.925781 3.972656 10.070312 C 4.121094 10.21875 4.324219 10.304688 4.535156 10.304688 Z M 4.535156 10.304688 "/>
<path style=" stroke:none;fill-rule:nonzero;fill:rgb(0%,0%,0%);fill-opacity:1;" d="M 19.46875 15.285156 C 19.675781 15.285156 19.878906 15.199219 20.027344 15.050781 C 20.175781 14.90625 20.261719 14.699219 20.261719 14.488281 C 20.261719 14.28125 20.175781 14.074219 20.027344 13.929688 C 19.878906 13.78125 19.675781 13.695312 19.46875 13.695312 C 19.257812 13.695312 19.050781 13.78125 18.902344 13.929688 C 18.753906 14.074219 18.671875 14.28125 18.671875 14.488281 C 18.671875 14.699219 18.753906 14.90625 18.902344 15.050781 C 19.050781 15.199219 19.257812 15.285156 19.46875 15.285156 Z M 19.46875 15.285156 "/>
<path style=" stroke:none;fill-rule:nonzero;fill:rgb(0%,0%,0%);fill-opacity:1;" d="M 12 15.285156 C 12.210938 15.285156 12.414062 15.199219 12.5625 15.050781 C 12.710938 14.90625 12.796875 14.699219 12.796875 14.488281 C 12.796875 14.28125 12.710938 14.074219 12.5625 13.929688 C 12.414062 13.78125 12.210938 13.695312 12 13.695312 C 11.789062 13.695312 11.585938 13.78125 11.4375 13.929688 C 11.289062 14.074219 11.203125 14.28125 11.203125 14.488281 C 11.203125 14.699219 11.289062 14.90625 11.4375 15.050781 C 11.585938 15.199219 11.789062 15.285156 12 15.285156 Z M 12 15.285156 "/>
<path style=" stroke:none;fill-rule:nonzero;fill:rgb(0%,0%,0%);fill-opacity:1;" d="M 8.265625 15.285156 C 8.476562 15.285156 8.679688 15.199219 8.828125 15.050781 C 8.976562 14.90625 9.0625 14.699219 9.0625 14.488281 C 9.0625 14.28125 8.976562 14.074219 8.828125 13.929688 C 8.679688 13.78125 8.476562 13.695312 8.265625 13.695312 C 8.058594 13.695312 7.851562 13.78125 7.703125 13.929688 C 7.554688 14.074219 7.472656 14.28125 7.472656 14.488281 C 7.472656 14.699219 7.554688 14.90625 7.703125 15.050781 C 7.851562 15.199219 8.058594 15.285156 8.265625 15.285156 Z M 8.265625 15.285156 "/>
<path style=" stroke:none;fill-rule:nonzero;fill:rgb(0%,0%,0%);fill-opacity:1;" d="M 4.535156 15.285156 C 4.742188 15.285156 4.949219 15.199219 5.097656 15.050781 C 5.242188 14.90625 5.328125 14.699219 5.328125 14.488281 C 5.328125 14.28125 5.242188 14.074219 5.097656 13.929688 C 4.949219 13.78125 4.742188 13.695312 4.535156 13.695312 C 4.324219 13.695312 4.121094 13.78125 3.972656 13.929688 C 3.824219 14.074219 3.738281 14.28125 3.738281 14.488281 C 3.738281 14.699219 3.824219 14.90625 3.972656 15.050781 C 4.121094 15.199219 4.324219 15.285156 4.535156 15.285156 Z M 4.535156 15.285156 "/>
<path style=" stroke:none;fill-rule:nonzero;fill:rgb(0%,0%,0%);fill-opacity:1;" d="M 19.464844 18.675781 C 19.257812 18.675781 19.050781 18.757812 18.90625 18.90625 C 18.757812 19.054688 18.671875 19.261719 18.671875 19.46875 C 18.671875 19.679688 18.757812 19.882812 18.90625 20.03125 C 19.050781 20.179688 19.257812 20.265625 19.464844 20.265625 C 19.675781 20.265625 19.878906 20.179688 20.027344 20.03125 C 20.175781 19.882812 20.261719 19.679688 20.261719 19.46875 C 20.261719 19.261719 20.175781 19.054688 20.027344 18.90625 C 19.878906 18.757812 19.675781 18.675781 19.464844 18.675781 Z M 19.464844 18.675781 "/>
<path style=" stroke:none;fill-rule:nonzero;fill:rgb(0%,0%,0%);fill-opacity:1;" d="M 15.734375 18.675781 C 15.523438 18.675781 15.320312 18.757812 15.171875 18.90625 C 15.023438 19.054688 14.9375 19.261719 14.9375 19.46875 C 14.9375 19.679688 15.023438 19.882812 15.171875 20.03125 C 15.320312 20.179688 15.523438 20.265625 15.734375 20.265625 C 15.941406 20.265625 16.148438 20.179688 16.296875 20.03125 C 16.445312 19.882812 16.527344 19.679688 16.527344 19.46875 C 16.527344 19.261719 16.445312 19.054688 16.296875 18.90625 C 16.148438 18.757812 15.941406 18.675781 15.734375 18.675781 Z M 15.734375 18.675781 "/>
<path style=" stroke:none;fill-rule:nonzero;fill:rgb(0%,0%,0%);fill-opacity:1;" d="M 12 20.265625 C 12.210938 20.265625 12.414062 20.179688 12.5625 20.03125 C 12.710938 19.882812 12.796875 19.679688 12.796875 19.46875 C 12.796875 19.261719 12.710938 19.054688 12.5625 18.90625 C 12.414062 18.757812 12.207031 18.675781 12 18.675781 C 11.789062 18.675781 11.585938 18.757812 11.4375 18.90625 C 11.289062 19.054688 11.203125 19.261719 11.203125 19.46875 C 11.203125 19.679688 11.289062 19.882812 11.4375 20.03125 C 11.585938 20.179688 11.789062 20.265625 12 20.265625 Z M 12 20.265625 "/>
<path style=" stroke:none;fill-rule:nonzero;fill:rgb(0%,0%,0%);fill-opacity:1;" d="M 8.265625 20.265625 C 8.476562 20.265625 8.679688 20.179688 8.828125 20.03125 C 8.976562 19.882812 9.0625 19.679688 9.0625 19.46875 C 9.0625 19.261719 8.976562 19.054688 8.828125 18.90625 C 8.679688 18.757812 8.476562 18.675781 8.265625 18.675781 C 8.058594 18.675781 7.851562 18.757812 7.703125 18.90625 C 7.554688 19.054688 7.472656 19.261719 7.472656 19.46875 C 7.472656 19.679688 7.554688 19.882812 7.703125 20.03125 C 7.851562 20.179688 8.058594 20.265625 8.265625 20.265625 Z M 8.265625 20.265625 "/>
<path style=" stroke:none;fill-rule:nonzero;fill:rgb(0%,0%,0%);fill-opacity:1;" d="M 4.535156 20.265625 C 4.742188 20.265625 4.949219 20.179688 5.097656 20.03125 C 5.242188 19.882812 5.328125 19.679688 5.328125 19.46875 C 5.328125 19.261719 5.242188 19.054688 5.097656 18.90625 C 4.949219 18.757812 4.742188 18.675781 4.535156 18.675781 C 4.324219 18.675781 4.121094 18.757812 3.972656 18.90625 C 3.824219 19.054688 3.738281 19.261719 3.738281 19.46875 C 3.738281 19.679688 3.824219 19.882812 3.972656 20.03125 C 4.121094 20.179688 4.324219 20.265625 4.535156 20.265625 Z M 4.535156 20.265625 "/>
<path style=" stroke:none;fill-rule:nonzero;fill:rgb(0%,0%,0%);fill-opacity:1;" d="M 0.628906 23.203125 C 0.628906 23.644531 0.984375 24 1.421875 24 L 22.578125 24 C 23.015625 24 23.371094 23.644531 23.371094 23.203125 L 23.371094 3.285156 C 23.371094 2.847656 23.015625 2.488281 22.578125 2.488281 L 20.261719 2.488281 L 20.261719 0.796875 C 20.261719 0.355469 19.90625 0 19.464844 0 C 19.027344 0 18.671875 0.355469 18.671875 0.796875 L 18.671875 2.488281 L 17.773438 2.488281 L 17.773438 0.796875 C 17.773438 0.355469 17.417969 0 16.976562 0 C 16.539062 0 16.183594 0.355469 16.183594 0.796875 L 16.183594 2.488281 L 7.816406 2.488281 L 7.816406 0.796875 C 7.816406 0.355469 7.460938 0 7.023438 0 C 6.582031 0 6.226562 0.355469 6.226562 0.796875 L 6.226562 2.488281 L 5.328125 2.488281 L 5.328125 0.796875 C 5.328125 0.355469 4.972656 0 4.535156 0 C 4.09375 0 3.738281 0.355469 3.738281 0.796875 L 3.738281 2.488281 L 1.421875 2.488281 C 0.984375 2.488281 0.628906 2.847656 0.628906 3.285156 Z M 2.21875 4.082031 L 21.78125 4.082031 L 21.78125 4.980469 L 2.21875 4.980469 Z M 21.78125 22.410156 L 2.21875 22.410156 L 2.21875 6.570312 L 21.78125 6.570312 Z M 21.78125 22.410156 "/>
</g>
</svg>
