<?xml version="1.0" encoding="UTF-8"?>
<svg xmlns="http://www.w3.org/2000/svg" xmlns:xlink="http://www.w3.org/1999/xlink" width="24pt" height="24pt" viewBox="0 0 24 24" version="1.1">
<g id="surface1">
<path style=" stroke:none;fill-rule:nonzero;fill:rgb(0%,0%,0%);fill-opacity:1;" d="M 22.820312 4.710938 L 18.296875 4.710938 C 18.726562 4.171875 18.902344 3.457031 18.964844 3.128906 C 19.039062 2.730469 19.167969 1.722656 18.75 0.980469 C 18.394531 0.347656 17.78125 0 17.019531 0 C 15.753906 0 14.34375 0.964844 13.617188 1.542969 C 13.277344 1.808594 12.960938 2.089844 12.667969 2.378906 L 12.667969 2.34375 C 12.667969 2.050781 12.429688 1.8125 12.136719 1.8125 L 11.886719 1.8125 C 11.589844 1.8125 11.351562 2.050781 11.351562 2.34375 L 11.351562 2.378906 C 11.0625 2.089844 10.742188 1.808594 10.402344 1.542969 C 9.675781 0.964844 8.265625 0 7 0 C 6.238281 0 5.625 0.347656 5.269531 0.980469 C 4.851562 1.722656 4.980469 2.730469 5.054688 3.128906 C 5.117188 3.457031 5.292969 4.171875 5.722656 4.710938 L 1.199219 4.710938 C 0.90625 4.710938 0.664062 4.949219 0.664062 5.246094 L 0.664062 9.066406 C 0.664062 9.363281 0.90625 9.601562 1.199219 9.601562 L 2.429688 9.601562 L 2.429688 23.484375 C 2.429688 23.78125 2.667969 24.019531 2.964844 24.019531 L 21.054688 24.019531 C 21.351562 24.019531 21.589844 23.78125 21.589844 23.484375 L 21.589844 9.601562 L 22.820312 9.601562 C 23.117188 9.601562 23.355469 9.363281 23.355469 9.066406 L 23.355469 5.246094 C 23.355469 4.949219 23.117188 4.710938 22.820312 4.710938 Z M 9.25 4.367188 C 8.289062 4.367188 7.480469 4.160156 7.085938 3.816406 L 7.046875 3.785156 C 6.941406 3.707031 6.734375 3.375 6.632812 2.832031 C 6.527344 2.285156 6.597656 1.894531 6.667969 1.773438 L 6.671875 1.765625 C 6.722656 1.671875 6.777344 1.601562 7 1.601562 C 7.554688 1.601562 8.476562 2.0625 9.410156 2.796875 C 10.011719 3.273438 10.492188 3.765625 10.820312 4.175781 C 10.394531 4.289062 9.855469 4.367188 9.25 4.367188 Z M 13.613281 21.933594 L 10.40625 21.933594 L 10.40625 12.308594 L 13.613281 12.308594 Z M 13.613281 9.609375 L 10.40625 9.609375 L 10.40625 7.0625 L 13.613281 7.0625 Z M 17.390625 2.832031 C 17.285156 3.375 17.078125 3.707031 16.972656 3.789062 L 16.9375 3.816406 C 16.539062 4.160156 15.730469 4.367188 14.773438 4.367188 C 14.164062 4.367188 13.625 4.289062 13.199219 4.175781 C 13.53125 3.765625 14.007812 3.273438 14.613281 2.796875 C 15.542969 2.0625 16.464844 1.605469 17.019531 1.605469 C 17.242188 1.605469 17.296875 1.671875 17.347656 1.765625 L 17.355469 1.773438 C 17.421875 1.894531 17.492188 2.285156 17.390625 2.832031 Z M 17.390625 2.832031 "/>
</g>
</svg>
