<?xml version="1.0" encoding="UTF-8"?>
<svg xmlns="http://www.w3.org/2000/svg" xmlns:xlink="http://www.w3.org/1999/xlink" width="24pt" height="24pt" viewBox="0 0 24 24" version="1.1">
<g id="surface1">
<path style=" stroke:none;fill-rule:nonzero;fill:rgb(0%,0%,0%);fill-opacity:1;" d="M 12 3.304688 C 11.566406 3.304688 11.21875 3.652344 11.21875 4.085938 L 11.21875 6 C 11.21875 6.433594 11.566406 6.78125 12 6.78125 C 12.433594 6.78125 12.78125 6.433594 12.78125 6 L 12.78125 4.085938 C 12.78125 3.652344 12.433594 3.304688 12 3.304688 Z M 12 3.304688 "/>
<path style=" stroke:none;fill-rule:nonzero;fill:rgb(0%,0%,0%);fill-opacity:1;" d="M 21.390625 1.566406 L 16.023438 1.566406 C 14.65625 0.320312 12.84375 -0.222656 10.988281 0.0820312 C 9.84375 0.273438 8.804688 0.804688 7.96875 1.566406 L 2.609375 1.566406 C 1.3125 1.566406 0.261719 2.617188 0.261719 3.914062 L 0.261719 21.652344 C 0.261719 22.945312 1.3125 24 2.609375 24 L 21.390625 24 C 22.6875 24 23.738281 22.945312 23.738281 21.652344 L 23.738281 3.914062 C 23.738281 2.617188 22.6875 1.566406 21.390625 1.566406 Z M 12.800781 10.359375 C 12.792969 10.359375 12.789062 10.359375 12.78125 10.363281 L 12.78125 22.433594 L 11.21875 22.433594 L 11.21875 10.363281 C 11.21875 10.363281 11.21875 10.363281 11.21875 10.359375 C 9.144531 9.992188 7.566406 8.175781 7.566406 6 C 7.566406 3.609375 9.507812 1.566406 12 1.566406 C 12.007812 1.566406 12.019531 1.566406 12.027344 1.566406 C 14.445312 1.578125 16.433594 3.554688 16.433594 6 C 16.433594 8.144531 14.882812 9.980469 12.800781 10.359375 Z M 12.800781 10.359375 "/>
</g>
</svg>
