<?xml version="1.0" encoding="UTF-8"?>
<svg xmlns="http://www.w3.org/2000/svg" xmlns:xlink="http://www.w3.org/1999/xlink" width="24pt" height="24pt" viewBox="0 0 24 24" version="1.1">
<g id="surface1">
<path style=" stroke:none;fill-rule:nonzero;fill:rgb(0%,0%,0%);fill-opacity:1;" d="M 20.113281 0 L 3.886719 0 C 1.742188 0 0 1.742188 0 3.886719 L 0 20.113281 C 0 22.257812 1.742188 24 3.886719 24 L 20.113281 24 C 22.257812 24 24 22.257812 24 20.113281 L 24 3.886719 C 24 1.742188 22.257812 0 20.113281 0 Z M 3.886719 1.066406 L 20.113281 1.066406 C 21.667969 1.066406 22.933594 2.332031 22.933594 3.886719 L 22.933594 6.996094 L 18.609375 6.996094 C 16.777344 6.996094 16.257812 7.761719 15.800781 8.441406 C 15.308594 9.164062 14.804688 9.910156 12 9.910156 C 9.195312 9.910156 8.691406 9.164062 8.199219 8.441406 C 7.742188 7.761719 7.222656 6.996094 5.390625 6.996094 L 1.066406 6.996094 L 1.066406 3.886719 C 1.066406 2.332031 2.332031 1.066406 3.886719 1.066406 Z M 20.113281 22.933594 L 3.886719 22.933594 C 2.332031 22.933594 1.066406 21.667969 1.066406 20.113281 L 1.066406 8.0625 L 5.390625 8.0625 C 6.65625 8.0625 6.921875 8.449219 7.316406 9.039062 C 7.902344 9.902344 8.628906 10.976562 12 10.976562 C 15.371094 10.976562 16.097656 9.902344 16.683594 9.039062 C 17.078125 8.449219 17.339844 8.0625 18.609375 8.0625 L 22.933594 8.0625 L 22.933594 20.113281 C 22.933594 21.667969 21.667969 22.933594 20.113281 22.933594 Z M 20.113281 22.933594 "/>
<path style=" stroke:none;fill-rule:nonzero;fill:rgb(0%,0%,0%);fill-opacity:1;" d="M 9.683594 7.402344 C 9.773438 7.578125 9.957031 7.6875 10.152344 7.6875 L 11.476562 7.6875 C 11.476562 7.6875 11.476562 7.6875 11.480469 7.6875 L 13.847656 7.6875 C 14.042969 7.6875 14.226562 7.578125 14.316406 7.402344 L 16.164062 3.902344 C 16.269531 3.699219 16.234375 3.449219 16.074219 3.28125 C 16.019531 3.230469 14.769531 1.980469 12 1.980469 C 9.230469 1.980469 7.980469 3.230469 7.925781 3.28125 C 7.765625 3.449219 7.730469 3.699219 7.835938 3.902344 Z M 9.621094 3.472656 L 9.941406 4.667969 C 10.003906 4.90625 10.21875 5.0625 10.457031 5.0625 C 10.5 5.0625 10.546875 5.054688 10.59375 5.042969 C 10.878906 4.964844 11.046875 4.675781 10.96875 4.390625 L 10.644531 3.171875 C 10.890625 3.125 11.164062 3.085938 11.464844 3.066406 L 11.464844 4.265625 C 11.464844 4.5625 11.707031 4.800781 12 4.800781 C 12.292969 4.800781 12.535156 4.5625 12.535156 4.265625 L 12.535156 3.066406 C 12.835938 3.085938 13.109375 3.125 13.355469 3.171875 L 13.03125 4.390625 C 12.953125 4.675781 13.121094 4.964844 13.40625 5.042969 C 13.453125 5.054688 13.5 5.0625 13.542969 5.0625 C 13.78125 5.0625 13.996094 4.90625 14.058594 4.667969 L 14.378906 3.472656 C 14.652344 3.585938 14.863281 3.703125 15.011719 3.800781 L 13.523438 6.621094 L 12.953125 6.621094 L 12.496094 5.46875 C 12.414062 5.261719 12.214844 5.125 11.988281 5.132812 C 11.765625 5.136719 11.570312 5.277344 11.496094 5.488281 L 11.097656 6.621094 L 10.476562 6.621094 L 8.988281 3.800781 C 9.140625 3.703125 9.347656 3.585938 9.621094 3.472656 Z M 9.621094 3.472656 "/>
</g>
</svg>
